PathFileType	4	(X/Y/Z)	C:/Users/beibeiliu/ov580/test_trc/User2\sequence.21_training_dense_right.trc
DataRate	CameraRate	NumFrames	NumMarkers	Units	OrigDataRate	OrigDataStartFrame	OrigNumFrames
120	120	16	19	mm	120	282	322
Frame#	Time	ThumbCMC			ThumbMCP			ThumbIP			ThumbTip			IndexMCP			IndexPIP			IndexTip			MiddleMCP			MiddlePIP			MiddleTip			RingMCP			RingPIP			RingTip			PinkyMCP			PinkyPIP			PinkyTip			BackHand1			BackHand2			BackHand3	
		X0	Y0	Z0	X1	Y1	Z1	X2	Y2	Z2	X3	Y3	Z3	X4	Y4	Z4	X5	Y5	Z5	X6	Y6	Z6	X7	Y7	Z7	X8	Y8	Z8	X9	Y9	Z9	X10	Y10	Z10	X11	Y11	Z11	X12	Y12	Z12	X13	Y13	Z13	X14	Y14	Z14	X15	Y15	Z15	X16	Y16	Z16	X17	Y17	Z17	X18	Y18	Z18	
281	2.34167	90.3683	44.3974	24.7264	54.1683	45.5543	9.54565	25.3123	39.7519	-8.52088	1.98347	39.4945	-18.901	67.0629	10.0989	-42.2049	36.3532	12.6412	-52.3405	8.15142	12.1358	-49.5563	53.4787	-7.42649	-32.7535	27.6525	12.9057	-12.7784	57.5266	19.8665	12.7922	45.1276	-18.0528	-12.1456	30.3601	3.40759	8.67332	64.7708	9.92144	22.0169	45.113	-27.6878	4.45319	38.1191	-3.40538	26.9876	72.5238	-1.0096	38.833	101.395	-23.7823	9.30072	119.953	-16.8783	39.2386	119.147	12.9327	12.1467	
282	2.35	96.1715	44.8359	21.162	61.1238	51.0527	5.46157	33.0886	47.0655	-11.5368	11.2891	43.1436	-23.2484	68.6484	12.6276	-47.6124	40.4611	11.1555	-53.7609	10.1793	15.799	-52.1692	52.5528	-6.41771	-34.0761	31.4789	14.6347	-14.2611	62.7761	23.6083	9.05013	42.1765	-12.0538	-14.3769	33.0059	6.90459	6.27617	65.4752	12.8631	20.2951	44.817	-25.5736	2.70905	39.6874	1.89763	25.842	72.2535	3.26425	33.8067	102.896	-28.4869	10.2755	121.417	-18.06	41.7635	123.07	9.48792	9.8796	
283	2.35833	100.745	42.3457	20.0295	66.5471	48.2278	1.65027	38.4234	44.7167	-16.0015	17.6249	40.9259	-28.6917	76.6268	9.97632	-47.8361	42.6368	11.5661	-56.8835	14.1644	19.0187	-57.9231	60.0356	-5.70244	-35.9464	35.2888	13.4982	-17.5217	65.1255	22.0731	7.83329	45.9703	-15.7727	-14.6793	35.2284	7.7598	5.15816	66.2412	11.3887	21.1405	45.4039	-26.7726	2.94931	38.7775	0.0752702	24.1638	69.7685	2.01592	32.1252	102.667	-28.554	10.0964	120.198	-24.1268	42.5795	126.069	5.94568	11.6102	
284	2.36667	103.613	39.8214	20.3343	70.1347	48.2744	-0.536212	43.9452	46.7706	-18.2922	19.4449	41.4789	-35.0924	81.9047	9.17289	-49.2205	50.9048	11.1778	-61.4402	20.401	18.4359	-63.075	63.3077	-6.96816	-39.0401	38.3969	14.3296	-21.7659	68.2853	24.2001	3.95072	48.742	-15.4726	-19.4146	36.49	3.88191	0.0968768	70.6814	11.0386	17.7413	48.571	-23.2093	-2.40864	44.5655	2.76266	16.9777	71.2105	1.75335	29.0006	104.13	-31.5327	9.63908	124.133	-24.0928	42.6801	128.273	1.39565	13.5501	
285	2.375	102.02	38.129	18.1835	70.3225	42.7398	-0.714787	43.1929	40.7248	-21.4198	22.678	33.1907	-35.8275	84.9727	9.43893	-51.4465	54.9983	7.09714	-61.8438	26.2851	13.0234	-67.1498	70.6638	-7.08695	-42.3958	42.2264	10.7972	-25.5229	67.4614	19.3863	3.0922	53.3636	-18.5739	-22.4337	38.8205	0.240189	-5.98143	70.2625	6.01731	17.1901	50.799	-29.2783	-6.27879	44.8546	-2.74215	13.7013	70.551	0.296959	29.1563	113.115	-28.2342	6.73075	125.315	-23.6533	36.4425	130.504	6.71507	13.8801	
286	2.38333	95.1129	36.0158	21.501	63.2276	38.4847	0.392126	37.4615	33.2473	-22.3165	19.0313	25.3307	-38.102	87.1582	9.49371	-49.8673	61.4189	7.39793	-63.3826	31.7204	7.14595	-70.0076	71.5995	-9.69531	-44.8458	43.5243	0.232135	-28.2074	68.7956	17.4711	1.11572	59.4246	-21.8245	-28.45	43.1783	-4.90777	-7.67326	69.4323	3.57065	11.7042	60.8611	-36.9591	-11.9247	45.4235	-13.6414	7.54342	73.0947	-5.09885	27.2574	116.996	-27.641	6.27199	128.615	-21.4836	38.99	130.708	12.4266	13.7929	
287	2.39167	84.9723	37.9222	28.862	53.8723	31.8742	5.31	31.2791	26.1227	-20.0774	17.2425	14.2478	-38.2653	87.2793	17.059	-48.482	61.0749	12.9874	-65.0989	30.4612	2.44464	-71.6414	78.4973	-1.92586	-45.4138	44.5315	-2.33527	-31.6081	66.4588	14.3617	2.69312	67.1479	-25.0585	-30.3886	44.9423	-11.8663	-9.60913	73.4143	-2.61337	14.5579	66.1192	-38.724	-17.2712	48.2483	-20.9548	6.8915	68.2117	-9.56256	22.2738	122.463	-22.7434	4.64027	128.871	-18.3167	36.0865	123.204	20.3266	18.7393	
288	2.4	71.1103	34.2016	37.2402	42.4595	26.6461	8.23672	22.9264	17.2504	-19.6078	9.07613	8.30818	-40.008	79.9512	23.7053	-43.6702	58.1352	14.6617	-61.1396	28.9752	1.38841	-70.4989	73.9433	1.76638	-45.5299	43.9908	-6.25327	-28.7598	58.0208	8.46437	4.68778	71.8984	-17.6355	-32.6774	45.9175	-18.9682	-13.1848	68.8166	-2.19413	12.5912	71.3594	-36.8888	-21.5382	49.5621	-31.5146	0.867891	71.9186	-12.6054	23.3474	122.245	-10.7556	7.74216	128.13	-7.01805	38.0843	114.882	22.2194	26.2796	
289	2.40833	60.8904	27.3501	41.6726	33.6938	18.7538	15.9148	12.9952	11.9854	-12.1148	6.91211	0.833604	-34.0455	69.3132	34.7358	-37.1242	50.1202	19.7481	-56.3016	26.9238	7.5768	-67.6631	70.3792	11.7991	-40.9005	42.524	-7.90478	-31.5499	54.2496	1.30642	7.54824	68.041	-14.7145	-33.081	45.5924	-23.1626	-12.7944	64.7352	-9.33828	15.1723	73.7204	-33.4307	-24.1817	52.5192	-29.6891	-0.51593	66.9393	-19.2075	22.9826	118.46	-5.21815	9.4603	125.412	-6.3912	43.1057	105.688	29.9573	31.6364	
290	2.41667	50.5442	20.928	47.1246	26.6676	9.81405	16.8734	10.3	3.95227	-13.5486	0.969472	-2.65049	-36.7887	54.8686	39.0098	-32.5993	39.13	23.3075	-53.6265	22.9008	8.27151	-65.1807	63.3928	14.1255	-39.009	37.5827	-7.88999	-28.9488	49.6323	-0.235373	9.69159	67.7271	-8.14514	-32.1595	46.224	-24.2896	-14.109	60.0851	-9.40508	15.8501	80.5377	-28.5774	-25.0241	53.8946	-30.7902	-1.72044	69.4014	-22.0953	26.4216	114.171	3.68517	10.3912	120.666	-0.442665	44.3304	94.6652	31.6343	36.8147	
291	2.425	45.38	12.3351	47.4735	19.5095	3.63851	19.5748	8.26499	-2.28112	-10.2704	-2.71284	-7.39825	-36.562	45.9115	39.9421	-25.4795	31.4141	27.222	-46.7983	12.7446	9.60868	-65.0671	60.9059	18.2699	-33.749	36.1828	-8.5593	-29.4408	44.3277	-5.5227	9.58152	63.2089	-6.96799	-32.5577	46.4635	-25.0052	-18.2808	58.0866	-10.4503	15.7958	80.0882	-22.7161	-25.2043	57.114	-35.4043	-2.33395	70.9093	-23.6539	25.7371	108.08	12.744	13.5775	112.216	4.79063	45.3819	87.0671	29.8237	45.0759	
292	2.43333	40.0528	6.05516	50.8774	16.4748	-2.803	23.6726	2.51466	-5.86298	-13.434	-3.93366	-10.328	-37.5772	39.073	39.8814	-20.1397	24.0921	28.2641	-43.9526	8.55048	10.6367	-62.8279	53.699	19.1827	-33.1089	35.3175	-9.28723	-31.1342	47.771	-9.18967	10.4844	64.4897	-6.06146	-32.6034	47.0169	-26.218	-14.006	59.3844	-17.1543	14.6213	79.4364	-16.1783	-25.6442	58.9719	-35.941	-2.37967	70.9395	-21.7517	24.5485	103.973	17.0353	12.6292	112.861	4.78504	49.4202	79.1471	29.2943	46.2273	
293	2.44167	37.024	2.86454	47.7728	20.935	-7.34103	20.005	6.21886	-11.1589	-11.1959	-4.67391	-14.5181	-37.1567	37.119	37.7267	-19.9463	20.5654	25.0114	-45.9158	8.67912	10.0284	-62.3637	54.6357	19.1965	-32.144	34.3151	-13.079	-27.6737	45.3867	-11.8379	9.84347	63.6775	-4.46738	-30.8005	50.4634	-29.045	-15.1786	60.7656	-15.8325	15.5873	76.2694	-16.5663	-25.5799	61.8362	-35.1928	-4.68887	72.9441	-24.0669	20.6373	99.5929	16.0735	17.6306	111.484	4.38091	51.4168	73.8695	25.9895	49.8207	
294	2.45	39.3913	-1.97462	47.726	19.5749	-10.1234	17.7003	7.89674	-13.9509	-12.4332	1.11131	-15.4438	-41.0302	38.8857	35.4447	-21.9345	21.4727	24.3058	-48.1512	10.622	8.39914	-64.948	56.5023	18.2429	-33.7818	41.0919	-15.3544	-29.6847	50.2674	-12.6335	8.63499	66.5495	-1.42478	-31.6227	53.4209	-29.8383	-17.5236	61.9788	-16.26	14.5623	84.3368	-17.8413	-28.4576	67.366	-39.8609	-6.62359	74.029	-23.3716	20.9473	102.404	18.3234	15.806	108.657	3.96641	52.2642	76.7737	25.1015	48.4867	
295	2.45833	40.7693	-4.40438	47.758	24.8125	-11.395	13.3219	12.4132	-14.2449	-18.8876	7.33472	-16.4869	-45.6758	41.7144	35.4298	-23.3917	28.2548	23.1867	-51.6835	17.3351	5.85321	-71.8886	59.4818	18.5944	-33.7064	44.0782	-14.0611	-35.7429	52.2958	-14.2598	4.1371	70.9251	-4.97902	-34.6509	58.2711	-30.2056	-22.1206	69.0937	-20.3755	11.3851	84.2333	-20.415	-29.1265	70.925	-39.3181	-6.95583	77.9946	-25.1892	17.5382	104.052	14.9911	15.9841	112.071	4.64026	47.2243	75.7689	25.1945	45.0315	
296	2.46667	46.8721	-3.28768	41.5604	31.5566	-12.3075	8.3295	16.5075	-14.6654	-26.773	13.0927	-17.9103	-51.1605	48.8385	33.8976	-27.7461	39.1302	22.9855	-53.2712	27.1191	3.58577	-76.3537	67.5552	14.0444	-39.397	50.0645	-16.3246	-37.0018	57.6534	-15.1712	3.25641	75.3792	-8.02579	-37.5251	61.1303	-30.6575	-21.118	71.3109	-20.0019	8.41126	90.2439	-22.2739	-30.6862	78.2021	-42.486	-9.93	86.9811	-26.2103	21.5218	109.309	12.7968	15.165	117.809	2.13348	44.9819	80.3803	24.6376	43.9718	
